<?xml version="1.0" encoding="utf-8"?>
<!-- Generator: Adobe Illustrator 27.5.0, SVG Export Plug-In . SVG Version: 6.00 Build 0)  -->
<svg version="1.1" id="Capa_1" xmlns="http://www.w3.org/2000/svg" xmlns:xlink="http://www.w3.org/1999/xlink" x="0px" y="0px"
	 viewBox="0 0 2122 2122" style="enable-background:new 0 0 2122 2122;" xml:space="preserve">
<g>
	<path style="fill:#E61C56;" d="M1738.358,596.279c-24.984-130.826-144.662-221.841-265.208-278.484
		c-168.258-79.065-361.461-116.449-542.25-73.121c-175.727,42.11-335.727,169.062-391.729,340.212
		c-12.675,3.545-24.78,8.996-35.398,15.899c-4.185,2.729-8.234,5.642-12.059,8.736c-25.437,20.292-43.225,47.732-58.334,75.308
		c-79.493,145.198-100.653,315.191-58.879,472.448c41.773,157.257,146.197,300.589,290.211,398.372
		c11.87,8.057,24.992,15.935,38.709,21.912c-3.273,11.8-5.492,23.911-7.903,35.969c-2.183,10.689-4.507,21.384-7.961,31.712
		c-15.288,46.182-52.102,86.772-50.738,135.415c0.731,25.847,12.56,50.188,27.26,71.483
		c48.185,69.617,128.224,112.711,211.22,129.544c82.947,16.79,169.037,9.554,252.306-5.549
		c108.204-19.659,215.776-53.33,306.094-116.034c16.517-11.42,33.126-24.799,40.044-43.635
		c14.421-39.176-18.387-79.308-22.982-120.808c-1.365-12.331-0.317-25.301,0.911-38.178c2.003-21.424,4.482-42.651-2.636-60.565
		c158.604-98.884,189.361-354.862,213.403-525.865c8.539-60.802,13.885-122.053,15.977-183.413
		c30.135-44.094,46.82-97.905,56.466-151.042C1743.294,690.295,1747.187,642.5,1738.358,596.279z"/>
	<path style="fill:#CC1350;" d="M1450.763,1695.658c-1.365-12.331-0.317-25.301,0.911-38.178
		c2.003-21.424,4.482-42.651-2.636-60.565c-7.084,4.416-14.423,8.519-22.027,12.287c-16.336,8.102-32.989,15.474-49.958,22.163
		c-12.151-10.47-28.029-17.34-43.956-20.112c-27.713-4.916-56.107,0.088-83.951,3.912c-7.874,1.048-16.293,1.954-23.391-1.55
		c-10.962-5.461-14.787-19.976-11.922-31.849c2.914-11.922,10.924-21.798,18.656-31.308
		c75.445-92.687,147.932-193.247,172.731-310.144c10.28-48.638,7.917-108.068-32.629-136.867
		c-31.897-22.708-77.807-16.838-110.114,5.233c-32.307,22.065-53.237,57.193-69.164,92.96
		c-35.898,80.399-51.781,168.95-90.958,247.849c-39.815,80.131-103.926,147.566-181.008,192.794
		c-4.551,2.685-9.691,5.277-15.245,7.874c-31.03-9.238-61.379-20.658-90.728-34.173c-18.475-8.503-36.731-17.911-53.767-29.023
		c-19.38,3.428-39.342-1.192-58.184-9.401c-3.273,11.8-5.492,23.911-7.903,35.969c-2.183,10.689-4.507,21.384-7.961,31.712
		c-15.288,46.182-52.102,86.772-50.738,135.415c0.731,25.847,12.56,50.188,27.26,71.483
		c48.185,69.617,128.224,112.711,211.22,129.544c82.947,16.79,169.037,9.554,252.306-5.549
		c108.204-19.659,215.776-53.33,306.094-116.034c16.517-11.42,33.126-24.799,40.044-43.635
		C1488.166,1777.29,1455.358,1737.159,1450.763,1695.658z"/>
	<path style="fill:#7F123D;" d="M1377.053,1631.366c-1.162,0.46-2.327,0.917-3.491,1.37c-1.112,0.434-2.224,0.863-3.338,1.289
		l-0.148,0.057c-1.021,0.391-2.042,0.778-3.064,1.164c-0.165,0.062-0.329,0.125-0.495,0.187c-0.963,0.362-1.929,0.722-2.894,1.081
		c-0.228,0.084-0.455,0.17-0.682,0.254c-0.928,0.344-1.856,0.683-2.784,1.023c-0.269,0.098-0.538,0.197-0.806,0.294
		c-0.884,0.322-1.769,0.641-2.654,0.958c-0.325,0.116-0.649,0.233-0.973,0.349c-0.865,0.309-1.731,0.616-2.597,0.921
		c-0.333,0.117-0.665,0.234-0.998,0.351c-0.83,0.291-1.66,0.581-2.492,0.869c-0.416,0.144-0.832,0.288-1.249,0.431
		c-0.745,0.257-1.491,0.512-2.237,0.766c-0.508,0.173-1.018,0.346-1.528,0.518c-0.656,0.222-1.313,0.442-1.97,0.663
		c-0.672,0.224-1.344,0.447-2.015,0.669c-0.484,0.159-0.966,0.319-1.448,0.478c-0.849,0.278-1.698,0.554-2.547,0.83
		c-0.351,0.114-0.701,0.228-1.053,0.341c-1.066,0.344-2.133,0.684-3.201,1.023c-0.112,0.035-0.224,0.071-0.336,0.107
		c-67.129,21.237-137.684,32.207-208.388,33.035c-0.063,0.001-0.126,0.001-0.189,0.001c-1.337,0.015-2.671,0.027-4.009,0.035
		c-0.3,0.002-0.599,0.004-0.899,0.005c-1.157,0.006-2.314,0.008-3.47,0.008c-0.328,0-0.656,0-0.983,0
		c-1.187-0.002-2.374-0.006-3.561-0.013c-0.262-0.002-0.524-0.002-0.787-0.004c-1.396-0.01-2.791-0.023-4.187-0.041
		c-0.494-0.006-0.989-0.015-1.482-0.022c-0.86-0.013-1.719-0.026-2.579-0.041c-0.715-0.013-1.43-0.028-2.145-0.043
		c-0.651-0.014-1.302-0.028-1.954-0.044c-0.759-0.018-1.518-0.036-2.276-0.057c-0.58-0.016-1.159-0.032-1.739-0.049
		c-0.85-0.025-1.702-0.049-2.552-0.077c-0.287-0.01-0.575-0.021-0.863-0.03c-3.325-0.112-6.649-0.247-9.972-0.404
		c-0.251-0.012-0.502-0.023-0.753-0.035c-1.035-0.05-2.071-0.102-3.106-0.157c-0.302-0.016-0.603-0.032-0.905-0.048
		c-1.043-0.056-2.084-0.114-3.127-0.174c-0.18-0.01-0.361-0.021-0.541-0.032c-4.781-0.28-9.558-0.608-14.331-0.981
		c-0.149-0.011-0.297-0.023-0.445-0.034c-1.113-0.087-2.225-0.178-3.337-0.271c-0.193-0.016-0.385-0.032-0.579-0.049
		c-4.767-0.401-9.531-0.849-14.29-1.343c-0.144-0.016-0.287-0.029-0.431-0.045c-1.026-0.107-2.052-0.217-3.077-0.329
		c-0.335-0.036-0.67-0.073-1.005-0.109c-0.979-0.108-1.96-0.218-2.939-0.329c-0.349-0.04-0.699-0.081-1.05-0.122
		c-0.976-0.113-1.953-0.226-2.928-0.343c-0.264-0.031-0.529-0.065-0.794-0.097c-1.947-0.235-3.891-0.478-5.836-0.728
		c-0.337-0.044-0.676-0.086-1.013-0.13c-0.795-0.104-1.591-0.211-2.386-0.317c-0.607-0.081-1.213-0.162-1.82-0.245
		c-0.697-0.095-1.393-0.191-2.091-0.288c-0.764-0.106-1.526-0.214-2.29-0.322c-0.581-0.083-1.161-0.165-1.742-0.249
		c-0.953-0.138-1.904-0.278-2.856-0.421c-0.415-0.061-0.83-0.122-1.245-0.185c-2.889-0.434-5.776-0.888-8.659-1.357
		c-0.094-0.015-0.188-0.031-0.282-0.047c-1.407-0.229-2.814-0.464-4.219-0.702l-0.173-0.029
		c-28.963-4.909-57.599-11.557-85.667-19.94c-31.03-9.238-61.379-20.658-90.728-34.173c-18.475-8.503-36.731-17.911-53.767-29.023
		c-19.38,3.428-39.342-1.192-58.184-9.401c-3.273,11.8-5.492,23.911-7.903,35.969c30.031,12.19,57.515,32.214,85.724,47.868
		c141.832,78.762,310.144,108.794,470.45,84.039c72.984-11.284,148.565-36.808,199.98-87.956
		c2.003-21.424,4.482-42.651-2.636-60.565c-7.084,4.416-14.423,8.519-22.027,12.287
		C1410.675,1617.305,1394.022,1624.676,1377.053,1631.366z"/>
	<path style="fill:#CC1350;" d="M1738.358,596.279c-24.984-130.826-144.662-221.841-265.208-278.484
		c-168.258-79.065-361.461-116.449-542.25-73.121c-175.727,42.11-335.727,169.062-391.729,340.212
		c25.508-7.134,53.331-6.542,76.037,5.526c15.664,8.317,26.889,20.571,34.945,34.888c21.934-3.738,44.714-2.202,67.564,5.663
		c55.479,19.089,97.238,65.383,129.54,114.363c32.297,48.974,57.895,102.548,95.016,147.98
		c40.468,49.535,94.173,88.156,154.012,110.753c110.261,41.646,233.193,27.824,348.891,5.349
		c70.923-13.778,144.619-32.287,198.017-80.959c13.427-12.24,25.087-25.976,35.227-40.811
		c30.135-44.094,46.82-97.905,56.466-151.042C1743.294,690.295,1747.187,642.5,1738.358,596.279z"/>
	<path style="fill:#A9144D;" d="M1356.868,967.328c-46.061-4.01-92.385-2.471-138.49-7.357
		c-23.586-2.504-46.997-6.109-70.202-11.035c-21.569-4.579-43.123-12.682-65.364-11.8c-5.69,0.229-6.913,6.948-2.729,10.07
		c34.616,25.808,91.971,29.238,133.696,34.051c46.913,5.413,98.26,6.69,144.151-6.109
		C1362.451,973.886,1361.204,967.703,1356.868,967.328z"/>
	<path style="fill:#A9144D;" d="M1450.875,923.781c-5.116,6.139-9.252,12.941-14.115,19.284
		c-4.94,6.441-11.527,11.313-15.639,18.358c-2.334,3.995,1.505,8.482,5.778,7.518c16.765-3.776,30.724-25.798,31.016-42.241
		C1457.974,923.338,1453.214,920.975,1450.875,923.781z"/>
	<path style="fill:#A9144D;" d="M1508.458,905.399c-5.34,8.531-9.978,17.544-14.948,26.29c-5.033,8.853-12.321,16.058-18.051,24.438
		c-2.553,3.732,1.739,9.598,6.099,7.937c21.476-8.175,37.393-35.182,31.835-58.017
		C1512.829,903.713,1509.647,903.494,1508.458,905.399z"/>
	<path style="fill:#A9144D;" d="M1570.198,906.149c-10.378,4.058-16.19,14.343-22.333,22.996c-2.358,3.323-0.59,8.385,2.704,10.314
		c3.873,2.266,7.834,0.541,10.309-2.704c6.105-8.019,13.637-16.199,14.363-26.767
		C1575.406,907.581,1572.531,905.233,1570.198,906.149z"/>
	<path style="fill:#A9144D;" d="M1689.345,743.26c-9.583,56.521-41.447,106.826-81.427,146.665
		c-3.781,3.771,1.213,10.767,5.861,7.596c52.385-35.752,78.183-91.532,82.825-153.277
		C1696.916,740.137,1690.042,739.138,1689.345,743.26z"/>
	<path style="fill:#A9144D;" d="M899.948,694.563c-1.676-28.156,2.484-55.99,3.313-84.083c0.122-4.283-6.597-6.509-8.482-2.295
		c-23.231,51.854-17.072,131.474,12.263,180.278c3.63,6.041,12.687,2.007,11.171-4.711
		C911.432,753.569,901.809,725.896,899.948,694.563z"/>
	<path style="fill:#A9144D;" d="M832.055,566.14c-0.872-6.076-10.124-4.273-10.334,1.398c-1.681,46.177,6.957,89.057,20.565,133.154
		c2.582,8.371,15.386,4.916,13.164-3.625C844.299,654.164,838.345,609.949,832.055,566.14z"/>
	<path style="fill:#A9144D;" d="M753.01,561.575c-1.145-16.356,3.883-31.732,4.955-47.82c0.263-3.893-5.189-6.071-7.766-3.22
		c-27.971,30.914-10.242,83.591,14.027,110.801c4.224,4.736,12.838-1.681,8.935-6.894
		C761.536,598.919,754.374,581.034,753.01,561.575z"/>
	<path style="fill:#A9144D;" d="M687.178,496.371c-0.136-5.739-7.274-7.235-10.334-2.801c-19.016,27.522-13.52,67.293-1.271,96.39
		c3.912,9.296,18.402,6.12,15.63-4.307C683.018,554.885,687.89,527.348,687.178,496.371z"/>
	<path style="fill:#CC1350;" d="M644.05,631.323c-7.537,0.21-9.418,9.457-3.664,13.51c11.849,8.356,16.906,27.075,22.387,39.489
		c9.34,21.13,15.308,40.687,17.778,63.863c4.76,44.609,3.966,89.603,10.295,134.066c5.023,35.313,14.587,70.241,32.935,101.101
		c14.724,24.765,38.675,55.493,68.419,61.145c6.231,1.184,11.143-5.992,6.363-10.933c-14.529-15.011-31.673-25.393-44.083-42.816
		c-10.797-15.162-18.884-32.249-24.746-49.866c-14.548-43.703-14.66-90.397-16.107-135.951c-1.35-42.568-2.353-85.34-20.687-124.56
		C682.165,657.316,673.166,630.51,644.05,631.323z"/>
	<path style="fill:#CC1350;" d="M761.605,1586.962c3.567-0.631,7.113-1.534,10.63-2.739c0.867-0.316,1.729-0.638,2.592-0.999
		c-29.939-42.046-66.022-80.224-97.827-121.081c-70.484-90.641-120.808-195.663-157.983-304.321
		c-21.388-62.611-38.134-126.952-48.551-192.336c-17.929-112.618-17.203-229.744,15.196-339.722
		c1.457-4.96,3.639-10.465,6.051-16.244c-25.437,20.292-43.225,47.732-58.334,75.308
		c-79.493,145.198-100.653,315.191-58.879,472.448c41.773,157.257,146.197,300.589,290.211,398.372
		c11.87,8.057,24.992,15.935,38.709,21.912C722.263,1585.769,742.226,1590.39,761.605,1586.962z"/>
	<path style="fill:#CC1350;" d="M1638.412,985.525c-15.079,17.301-30.436,34.894-49.379,48.107
		c-17.486,12.2-37.749,21.301-57.106,30.09c-4.365,1.988-2.188,9.301,2.441,9.009c47.23-2.958,94.265-36.775,112.974-80.312
		C1649.657,987.035,1643.06,980.19,1638.412,985.525z"/>
	<path style="fill:#CC1350;" d="M1609.685,1060.792c-4.427,3.229-8.855,6.458-13.287,9.687c-4.24,3.093-8.568,6.058-10.923,10.923
		c-1.805,3.727,1.151,7.318,5.114,6.646c5.114-0.865,8.996-4,12.996-7.083c4.108-3.172,8.22-6.341,12.333-9.513
		C1622.061,1066.714,1616.186,1056.054,1609.685,1060.792z"/>
	<path style="fill:#CC1350;" d="M1635.386,1115.82c-39.06,23.942-79.469,43.123-120.921,62.378
		c-3.537,1.642-0.916,6.674,2.519,5.978c45.32-9.233,87.498-33.535,121.16-64.78
		C1640.035,1117.637,1637.589,1114.47,1635.386,1115.82z"/>
	<path style="fill:#CC1350;" d="M1604.266,1196.363c-14.933,6.618-30.847,12.291-43.43,22.923c-3.958,3.347,0.4,8.879,4.672,8.023
		c16.094-3.219,30.716-12.493,45.126-20.046C1617.963,1203.423,1611.528,1193.148,1604.266,1196.363z"/>
	<path style="fill:#CC1350;" d="M1581,1274.41c-41.672,22.514-86.412,37.775-128.202,59.481c-3.206,1.664-1.782,7.125,1.87,6.9
		c46.805-2.848,95.404-28.591,132.427-55.96C1593.22,1280.303,1587.999,1270.626,1581,1274.41z"/>
	<path style="fill:#CC1350;" d="M1562.2,1330.741c-17.076,11.271-36.149,18.753-53.563,29.221c-4.324,2.604-2.641,9.851,2.632,9.715
		c22.232-0.578,41.982-11.313,59.654-24.013C1579.802,1339.286,1571.614,1324.527,1562.2,1330.741z"/>
	<path style="fill:#CC1350;" d="M1533.077,1411.33c-24.027,56.177-54.771,99.343-102.21,138.283
		c-3.187,2.613,0.87,6.971,4.155,5.382c53.13-25.677,96.532-81.75,105.829-140.384
		C1541.533,1410.32,1535.146,1406.508,1533.077,1411.33z"/>
	<path style="fill:#CC1350;" d="M1391.316,1575.831c-5.913,1.344-11.201,3.045-17.353,3.276c-5.57,0.212-11.28-0.216-16.836-0.654
		c-6.063-0.474-5.969,7.746-1.311,9.701c12.324,5.171,28.798,2.562,38.974-6.359
		C1397.619,1579.309,1394.568,1575.093,1391.316,1575.831z"/>
	<path style="fill:#CC1350;" d="M773.244,1071.581c6.12-3.099,3.425-13.856-3.591-13.247
		c-57.661,5.004-119.932,42.314-160.604,81.495c-3.542,3.41,0.974,9.018,5.169,6.699c25.632-14.144,51.591-28.497,77.871-41.466
		C718.394,1092.083,747.232,1084.76,773.244,1071.581z"/>
	<path style="fill:#CC1350;" d="M657.439,1037.632c28.487,4.682,57.403,7.733,86.154,10.748c4.926,0.517,7.167-7.537,2.582-9.539
		c-28.044-12.224-58.85-16.151-88.735-9.159C653.658,1030.563,653.356,1036.965,657.439,1037.632z"/>
	<path style="fill:#EA4A80;" d="M1680.746,661.335c7.971-56.95-5.208-116.614-36.419-164.91
		c-26.1-40.39-63.605-72.083-102.758-99.995c-56.395-40.205-117.427-73.9-181.495-100.205c-12.911-5.301-26.441-10.382-40.375-9.642
		c-13.939,0.74-28.438,8.848-32.326,22.256c-5.521,19.041,11.449,36.697,27.342,48.556c38.12,28.438,79.815,52,116.599,82.143
		c36.785,30.149,69.267,68.546,80.497,114.758c5.851,24.058,5.69,49.188,3.678,73.866c-1.832,22.466-5.125,45.442,0.511,67.269
		c10.076,39.04,51.742,65.096,91.084,62.207C1654.451,754.159,1674.987,702.524,1680.746,661.335z"/>
	<path style="fill:#EA4A81;" d="M888.025,1426.786c5.408-72.882-7.561-147.196-38.28-213.568
		c-3.786-8.181-8.137-16.604-15.605-21.647c-7.464-5.047-18.938-5.296-24.478,1.813c-3.615,4.638-3.859,10.996-3.815,16.877
		c0.365,53.963,11.171,108.999-2.412,161.228c-5.208,20.034-13.876,38.977-20.58,58.558c-6.699,19.586-11.474,40.434-8.482,60.916
		c2.996,20.482,15.016,40.584,34.076,48.657C876.625,1568.506,885.102,1466.133,888.025,1426.786z"/>
	<path style="fill:#EA4A80;" d="M822.91,369.955c5.51,3.245,12.502,1.832,18.616-0.043c30.455-9.326,58.182-27.396,87.718-39.255
		c35.425-14.222,74.051-19.255,112.019-19.654c53.427-0.56,106.558,7.562,159.941,9.715c10.402,0.419,22.68-0.312,28.385-9.018
		c5.325-8.132,1.632-19.703-5.661-26.134c-7.289-6.431-17.155-8.935-26.66-10.977c-104.351-22.436-215.171-13.832-314.811,24.434
		c-22.835,8.77-46.202,19.961-60.107,40.083C815.763,348.629,812.927,364.084,822.91,369.955z"/>
	<path style="fill:#A9144D;" d="M1225.667,1651.795c-16.156-3.05-33.9-2.958-47.142-12.697
		c-12.969-9.554-18.427-26.938-17.428-43.045c1.048-16.107,7.552-31.303,14.563-45.866
		c38.358-79.766,93.685-150.202,135.415-228.282c14.378-26.894,27.391-55.971,26.387-86.412
		c-0.726-22.431-12.102-47.093-33.759-53.052c-13.291-3.639-27.805,0.682-39.133,8.507c-23.888,16.429-34.855,45.686-44.273,73.121
		c-27.849,81.408-54.197,164.082-96.555,238.981c-31.352,55.42-72.214,106.836-124.131,144.239
		c-10.422,7.508-22.616,12.653-34.626,17.749c8.892,1.854,17.822,3.541,26.783,5.061l0.173,0.029
		c1.405,0.238,2.812,0.472,4.219,0.702c0.094,0.016,0.189,0.031,0.282,0.047c2.883,0.47,5.77,0.922,8.659,1.357
		c0.416,0.063,0.831,0.123,1.245,0.185c0.952,0.142,1.905,0.283,2.856,0.421c0.581,0.084,1.16,0.167,1.742,0.249
		c0.764,0.108,1.526,0.215,2.29,0.322c0.698,0.097,1.394,0.193,2.091,0.288c0.606,0.083,1.213,0.163,1.82,0.245
		c0.795,0.106,1.591,0.213,2.386,0.317c0.337,0.044,0.676,0.086,1.013,0.13c1.944,0.251,3.889,0.493,5.836,0.728
		c0.265,0.031,0.528,0.065,0.794,0.097c0.975,0.117,1.952,0.23,2.928,0.343c0.351,0.04,0.7,0.082,1.05,0.122
		c0.979,0.112,1.96,0.222,2.939,0.329c0.335,0.036,0.67,0.073,1.005,0.109c1.025,0.112,2.051,0.222,3.077,0.329
		c0.144,0.015,0.287,0.029,0.431,0.045c4.759,0.494,9.523,0.942,14.29,1.343c0.194,0.016,0.386,0.032,0.579,0.049
		c1.112,0.093,2.224,0.184,3.337,0.271c0.148,0.011,0.296,0.023,0.445,0.034c4.773,0.374,9.551,0.702,14.331,0.981
		c0.18,0.011,0.361,0.022,0.541,0.032c1.043,0.06,2.084,0.118,3.127,0.174c0.302,0.016,0.603,0.032,0.905,0.048
		c1.035,0.055,2.071,0.107,3.106,0.157c0.251,0.011,0.502,0.023,0.753,0.035c3.323,0.157,6.646,0.292,9.972,0.404
		c0.288,0.009,0.575,0.02,0.863,0.03c0.85,0.028,1.702,0.052,2.552,0.077c0.58,0.017,1.159,0.033,1.739,0.049
		c0.759,0.02,1.518,0.039,2.276,0.057c0.652,0.016,1.302,0.03,1.954,0.044c0.715,0.015,1.43,0.03,2.145,0.043
		c0.859,0.016,1.719,0.029,2.579,0.041c0.494,0.007,0.988,0.016,1.482,0.022c1.396,0.018,2.792,0.031,4.187,0.041
		c0.263,0.002,0.525,0.002,0.787,0.004c1.187,0.007,2.374,0.011,3.561,0.013c0.327,0,0.656,0,0.983,0
		c1.155,0,2.313-0.002,3.47-0.008c0.3-0.001,0.599-0.003,0.899-0.005c1.336-0.009,2.672-0.02,4.009-0.035
		c0.063,0,0.125,0,0.189-0.001c44.113-0.522,88.174-4.996,131.396-13.446C1248.191,1658.85,1236.542,1653.797,1225.667,1651.795z"/>
	<path style="fill:#EA4A81;" d="M603.373,886.417c0.599,25.929,0.677,53.617,15.079,75.181c4.638,6.953,11.172,13.272,19.381,14.85
		c34.699,6.684,20.4-36.975,18.465-54.231c-3.99-35.557-1.598-72.984-2.295-108.775c-1.008-51.781-3.264-107.361-34.348-148.794
		c-11.162-14.884-26.982-27.761-45.52-29.335c-18.538-1.568-38.831,12.02-39.284,30.621c-0.361,14.611,10.47,26.699,19.318,38.339
		C592.883,755.192,601.907,822.471,603.373,886.417z"/>
	<path style="fill:#A9144D;" d="M850.438,1059.206c20.57,10.373,41.296,20.901,61.101,32.687
		c17.91,10.656,34.539,23.902,54.315,30.845c3.931,1.384,8.131-3.815,5.622-7.308c-25.13-34.957-76.238-55.362-116-68.18
		C848.498,1044.999,843.777,1055.844,850.438,1059.206z"/>
	<path style="fill:#A9144D;" d="M1002.165,1174.685c-4.921-10.617-19.44-2.563-17.676,7.454
		c11.045,62.636,26.383,121.798,26.514,186.109c0.127,64.146-14.003,124.112-23.971,186.899c-1.018,6.407,8.019,11.727,11.435,4.818
		c28.443-57.495,36.166-128.292,36.546-191.717C1035.387,1304.701,1029.161,1232.979,1002.165,1174.685z"/>
	<path style="fill:#A9144D;" d="M1039.514,1111.459c-19.079-6.816-46.972,8.618-58.485,23.372c-4.438,5.686,0.892,12.73,7.581,9.827
		c9.033-3.917,17.778-8.634,27.065-11.951c8.341-2.982,17.948-3.956,25.471-8.775
		C1046.296,1120.634,1045.049,1113.437,1039.514,1111.459z"/>
	<path style="fill:#EA4A81;" d="M942.53,1769.714c-55.961-2.787-110.709-25.652-152.024-63.493
		c-7.664-7.021-15.05-14.655-24.36-19.274c-9.311-4.619-21.272-5.613-29.613,0.585c-11.254,8.37-11.128,24.867-15.932,38.046
		c-6.631,18.188-23.596,31.045-30.592,49.096c-7.454,19.235-2.129,41.627,9.267,58.826c11.391,17.199,28.146,30.066,45.13,41.783
		c44.054,30.382,91.879,55.288,142.037,73.953c29.101,10.836,76.76,30.007,80.628-12.877c1.705-18.875-4.336-37.798-1.54-57.588
		c2.943-20.877,9.228-41.252,14.835-61.52c3.318-11.981,6.017-25.988-1.515-35.879
		C970.881,1770.898,955.68,1770.367,942.53,1769.714z"/>
</g>
</svg>
